Coordinates
version=1
nRows=14
nColumns=40
inDegrees=yes

Units are S.I. units (second, meters, Newtons, ...)
Angles are in degrees.

endheader
time	pelvis_tilt	pelvis_list	pelvis_rotation	pelvis_tx	pelvis_ty	pelvis_tz	hip_flexion_r	hip_adduction_r	hip_rotation_r	knee_angle_r	knee_angle_r_beta	ankle_angle_r	subtalar_angle_r	mtp_angle_r	hip_flexion_l	hip_adduction_l	hip_rotation_l	knee_angle_l	knee_angle_l_beta	ankle_angle_l	subtalar_angle_l	mtp_angle_l	lumbar_extension	lumbar_bending	lumbar_rotation	arm_flex_r	arm_add_r	arm_rot_r	elbow_flex_r	pro_sup_r	wrist_flex_r	wrist_dev_r	arm_flex_l	arm_add_l	arm_rot_l	elbow_flex_l	pro_sup_l	wrist_flex_l	wrist_dev_l
     33.93250000	     -2.93268680	     -4.12905801	     -3.02598873	      1.11405029	      0.92819953	      0.48220893	     18.39885129	      0.72132667	    -10.24457778	     19.94150417	     19.94150417	      6.78667392	      0.65827096	     -2.87760255	      5.51263555	    -11.28508957	    -10.74282083	     32.53048378	     32.53048378	     15.07216660	    -12.93858162	     -3.44370870	    -10.19868980	      4.08275874	     -0.26629693	     -1.84265791	    -14.59515402	     -8.40901830	     41.78364859	     45.83146449	      0.00000000	      0.00000000	     14.45450232	    -14.97640307	     -6.07995901	     53.81666581	     46.96317551	      0.00000000	      0.00000000
     33.94600000	     -2.80651492	     -4.15503215	     -2.74606959	      1.11468973	      0.92886886	      0.48497396	     17.71589393	      0.86162737	    -10.54842187	     19.77849067	     19.77849067	      7.17371508	      0.83018138	     -3.04328942	      7.24363179	    -11.80171895	     -9.46952131	     36.36154204	     36.36154204	     13.58096259	    -14.54285566	     -3.75268585	    -10.47890628	      4.15206908	     -0.09383240	     -0.38290252	    -14.85918724	     -8.00576237	     43.10230095	     45.76883845	      0.00000000	      0.00000000	     13.95100515	    -14.56852261	     -5.84455595	     52.60433347	     46.92447969	      0.00000000	      0.00000000
     33.95950000	     -2.90807327	     -4.06026565	     -2.35932915	      1.11509990	      0.92911934	      0.48718908	     17.27044261	      0.80507287	    -11.03459227	     19.57213074	     19.57213074	      7.39710876	      1.16871291	     -3.65754408	      9.41937083	    -11.97442037	     -7.77837563	     40.26357728	     40.26357728	     11.98505521	    -16.37381311	     -3.60148344	    -10.39944668	      4.25159463	      0.51673273	     -0.69334224	    -16.39256633	     -4.23062108	     47.91939739	     45.40407147	      0.00000000	      0.00000000	     14.62170099	    -13.64782261	     -5.27549926	     48.08629977	     46.83489173	      0.00000000	      0.00000000
     33.97300000	     -2.88267140	     -4.17866700	     -1.98583626	      1.11531255	      0.92942280	      0.48950790	     16.67950038	      1.02780122	    -11.40388628	     19.34384131	     19.34384131	      7.72532474	      1.27693743	     -3.77145422	     11.56451324	    -12.49100793	     -6.49061849	     44.21604138	     44.21604138	     10.55381205	    -17.20465254	     -3.40620109	    -10.57359350	      4.46509536	      0.61120041	      0.88231446	    -16.72036623	     -4.24366856	     48.90401161	     45.37927293	      0.00000000	      0.00000000	     13.80814234	    -13.22589444	     -5.02830860	     47.28805048	     46.79499522	      0.00000000	      0.00000000
     33.98650000	     -2.97916992	     -4.18867168	     -1.57130274	      1.11513075	      0.92950241	      0.49143934	     16.29746328	      1.07486045	    -11.90245357	     19.19297527	     19.19297527	      7.89883381	      1.50037097	     -4.25029427	     14.08762851	    -12.62714603	     -4.85855296	     48.35139754	     48.35139754	     10.81386114	    -17.36953773	      1.14743783	    -10.61438703	      4.59608901	      0.79526701	      1.87445266	    -17.70503972	     -2.54057604	     51.72262271	     45.22527321	      0.00000000	      0.00000000	     13.65706196	    -12.71694517	     -4.54863082	     44.49306126	     46.72086311	      0.00000000	      0.00000000
     34.00000000	     -3.03132196	     -4.34909534	     -1.14685384	      1.11484808	      0.92956284	      0.49334739	     15.83612481	      1.31975320	    -12.32267265	     18.97372294	     18.97372294	      8.15847751	      1.56675643	     -4.32151021	     16.36697416	    -12.95648314	     -3.52850678	     51.73421759	     51.73421759	      9.63296403	    -17.72938308	      1.51130060	    -10.74461750	      4.86120594	      1.00162382	      3.50292178	    -18.11226356	     -2.65572056	     52.61597750	     45.20991781	      0.00000000	      0.00000000	     12.77731299	    -12.26225773	     -4.35207590	     43.70786405	     46.68404758	      0.00000000	      0.00000000
     34.01350000	     -3.07236149	     -4.36063424	     -0.71961951	      1.11435357	      0.92962824	      0.49487666	     15.47048912	      1.34162053	    -12.80101822	     18.92433015	     18.92433015	      8.39577652	      1.75188168	     -4.57911725	     18.68602909	    -12.89552419	     -2.12358420	     54.89394021	     54.89394021	      9.82236686	    -17.73582364	      5.10528309	    -10.86368529	      5.00748180	      0.89820186	      5.13914223	    -18.79893058	     -1.65236930	     54.66691441	     45.11894831	      0.00000000	      0.00000000	     12.26425333	    -11.90656774	     -4.10204493	     41.29256793	     46.63233467	      0.00000000	      0.00000000
     34.02700000	     -3.21815608	     -4.47266472	     -0.33093659	      1.11376009	      0.92961882	      0.49644108	     15.11691828	      1.53581938	    -13.16803005	     18.64842208	     18.64842208	      8.59257638	      1.83900246	     -4.61723079	     20.94351286	    -13.01536632	     -1.05146706	     57.31681784	     57.31681784	      9.39213612	    -17.66587160	      6.23976406	    -10.88361537	      5.22491883	      1.24505074	      6.75952132	    -19.39801191	     -1.42238263	     55.73762656	     45.08950389	      0.00000000	      0.00000000	     11.48434101	    -11.39991049	     -3.95724032	     40.20375304	     46.59830230	      0.00000000	      0.00000000
     34.04050000	     -3.31395754	     -4.56817479	      0.05239771	      1.11313924	      0.92974357	      0.49787827	     14.74975145	      1.69821175	    -13.53201895	     18.42845351	     18.42845351	      8.76275544	      1.92904925	     -4.63824331	     22.98577994	    -13.07200217	     -0.14932009	     59.04949938	     59.04949938	      9.02090432	    -17.66530759	      6.85123386	    -10.98525010	      5.39284139	      1.57532082	      8.41999005	    -19.93925139	     -1.31832267	     56.66548995	     45.06670659	      0.00000000	      0.00000000	     10.60652219	    -10.95500839	     -3.82628040	     39.23600837	     46.56596709	      0.00000000	      0.00000000
     34.05400000	     -3.37813768	     -4.56566718	      0.39898001	      1.11250279	      0.93003950	      0.49913927	     14.32970880	      1.74818395	    -13.87819542	     18.18244128	     18.18244128	      8.96588137	      2.13494613	     -4.65341178	     24.83902580	    -13.00320715	      0.51666142	     60.13252841	     60.13252841	      9.18004304	    -17.55413178	      8.27959037	    -11.11208454	      5.49983878	      1.63209366	     10.28163602	    -20.51682075	     -0.54423721	     57.95058854	     45.01293636	      0.00000000	      0.00000000	      9.78184601	    -10.62451598	     -3.73145880	     37.50398264	     46.53366816	      0.00000000	      0.00000000
     34.06750000	     -3.45795463	     -4.56951741	      0.68027911	      1.11186356	      0.93041451	      0.50041610	     13.94669596	      1.83686910	    -14.10974604	     17.94743838	     17.94743838	      9.12424847	      2.17851062	     -4.64128872	     26.47840922	    -12.99534567	      0.90674207	     60.41157644	     60.41157644	      9.05928846	    -17.59927611	      8.46324027	    -11.21901528	      5.54043558	      2.27163861	     11.90638931	    -21.16341005	     -0.62141151	     58.57315153	     45.00569570	      0.00000000	      0.00000000	      8.86837252	    -10.14581171	     -3.64601324	     36.89444019	     46.50788255	      0.00000000	      0.00000000
     34.08100000	     -3.54732164	     -4.55501423	      0.99731219	      1.11132104	      0.93089018	      0.50148559	     13.47009980	      1.90234649	    -14.40000360	     17.52801308	     17.52801308	      9.27103667	      2.41337438	     -4.56251424	     27.95470268	    -12.93699605	      1.18542268	     60.00780124	     60.00780124	      9.21193258	    -17.60560240	      9.02866922	    -11.29909573	      5.58105173	      2.27382925	     13.81925418	    -21.51189167	     -0.07165764	     59.58375239	     44.96812335	      0.00000000	      0.00000000	      7.84044314	     -9.92317344	     -3.59120845	     35.49082953	     46.48059899	      0.00000000	      0.00000000
     34.09450000	     -3.67109313	     -4.44715669	      1.23731589	      1.11076570	      0.93133534	      0.50244714	     13.13333551	      1.86165283	    -14.55186992	     17.30615719	     17.30615719	      9.40863470	      2.41166891	     -4.54725781	     29.20998369	    -12.85451163	      1.11767883	     58.85503267	     58.85503267	      9.34676642	    -17.61477732	      9.17061379	    -11.33881298	      5.50741814	      2.94343567	     15.33401277	    -22.14048286	     -0.21652024	     60.10319637	     44.96520059	      0.00000000	      0.00000000	      6.87568834	     -9.50719111	     -3.52649893	     34.97767902	     46.45677489	      0.00000000	      0.00000000
     34.10800000	     -3.71264914	     -4.38478411	      1.53399692	      1.11033822	      0.93203090	      0.50322581	     12.48069835	      1.90553128	    -14.83784215	     16.65501511	     16.65501511	      9.48521342	      2.71829546	     -4.38850015	     30.16484503	    -12.71367240	      1.11719836	     57.02739802	     57.02739802	      9.48677649	    -17.74750602	      9.51121756	    -11.44950628	      5.52349683	      2.73688814	     17.40130370	    -22.19471041	      0.28863388	     61.15843089	     44.92717803	      0.00000000	      0.00000000	      5.70735005	     -9.41879423	     -3.46398858	     33.56278920	     46.42752409	      0.00000000	      0.00000000
